<?xml version="1.0" encoding="UTF-8" standalone="no"?>
<!-- Created with Inkscape (http://www.inkscape.org/) -->

<svg
   width="19in"
   height="10in"
   viewBox="0 0 482.6 254"
   version="1.1"
   id="svg5"
   inkscape:version="1.2 (dc2aedaf03, 2022-05-15)"
   sodipodi:docname="HVA-Logo-Full_Size-Color.svg"
   xml:space="preserve"
   inkscape:export-filename="HVA-Logo-Full_Size-Color-Black.png"
   inkscape:export-xdpi="100"
   inkscape:export-ydpi="100"
   xmlns:inkscape="http://www.inkscape.org/namespaces/inkscape"
   xmlns:sodipodi="http://sodipodi.sourceforge.net/DTD/sodipodi-0.dtd"
   xmlns="http://www.w3.org/2000/svg"
   xmlns:svg="http://www.w3.org/2000/svg"><sodipodi:namedview
     id="namedview7"
     pagecolor="#c3c7ca"
     bordercolor="#666666"
     borderopacity="1.0"
     inkscape:showpageshadow="2"
     inkscape:pageopacity="0"
     inkscape:pagecheckerboard="0"
     inkscape:deskcolor="#d1d1d1"
     inkscape:document-units="in"
     showgrid="false"
     inkscape:zoom="0.25998264"
     inkscape:cx="1534.7179"
     inkscape:cy="884.67445"
     inkscape:window-width="1920"
     inkscape:window-height="1057"
     inkscape:window-x="-8"
     inkscape:window-y="-8"
     inkscape:window-maximized="1"
     inkscape:current-layer="layer1"
     inkscape:lockguides="true"
     showguides="false"
     showborder="false"><inkscape:grid
       type="xygrid"
       id="grid132"
       units="in"
       spacingx="12.7"
       spacingy="12.7"
       originx="0"
       originy="0"
       empspacing="4"
       visible="true"
       enabled="true" /><sodipodi:guide
       position="336.54998,50.80001"
       orientation="0,-1"
       id="guide428"
       inkscape:locked="true" /><sodipodi:guide
       position="336.54998,203.20001"
       orientation="0,-1"
       id="guide480"
       inkscape:locked="true" /><sodipodi:guide
       position="349.25,203.20006"
       orientation="1,0"
       id="guide532"
       inkscape:locked="true" /></sodipodi:namedview><defs
     id="defs2"><inkscape:perspective
       sodipodi:type="inkscape:persp3d"
       inkscape:vp_x="0 : 127 : 1"
       inkscape:vp_y="0 : 1000 : 0"
       inkscape:vp_z="482.6 : 127 : 1"
       inkscape:persp3d-origin="241.3 : 84.666667 : 1"
       id="perspective1408" /></defs><g
     inkscape:label="Layer 1"
     inkscape:groupmode="layer"
     id="layer1"><rect
       style="fill:#ffffff;fill-opacity:1;stroke:none;stroke-width:44.5414;stroke-linecap:round;stroke-linejoin:miter;stroke-dasharray:none;stroke-dashoffset:188.976;stroke-opacity:1;paint-order:stroke fill markers"
       id="rect4632-4"
       width="759.43457"
       height="431.79999"
       x="0"
       y="-88.900002"
       inkscape:export-filename="HVA-Logo-Full_Size-Color-White.png"
       inkscape:export-xdpi="100"
       inkscape:export-ydpi="100" /><path
       style="fill:#ff8000;fill-opacity:1;stroke:none;stroke-width:27.94;stroke-linecap:round;stroke-linejoin:miter;stroke-dasharray:none;stroke-opacity:1;paint-order:stroke fill markers"
       d="M 336.54998,203.19999 V 50.799989 h -76.2 l -101.6,203.200001 h 50.8 l 76.2,-152.4 v 101.6 z"
       id="path3878-8"
       sodipodi:nodetypes="cccccccc" /><path
       style="fill:#0080ff;fill-opacity:1;stroke:none;stroke-width:27.94;stroke-linecap:butt;stroke-linejoin:miter;stroke-dasharray:none;stroke-opacity:1;paint-order:stroke fill markers"
       d="M 273.04998,-1.1051758e-5 171.44997,203.19999 H 95.249968 V 50.799989 H 146.04998 V 152.39999 l 76.2,-152.400001051758"
       id="path3880-8"
       sodipodi:nodetypes="ccccccc" /><text
       xml:space="preserve"
       style="font-size:10.5833px;line-height:1.25;font-family:'Chakra Petch';word-spacing:0px;stroke-width:0.264583;-inkscape-font-specification:'Chakra Petch';font-weight:normal;font-style:normal;font-stretch:normal;font-variant:normal"
       x="927.09998"
       y="520.70001"
       id="text1071"><tspan
         sodipodi:role="line"
         style="font-style:normal;font-variant:normal;font-weight:normal;font-stretch:normal;font-family:'Chakra Petch';-inkscape-font-specification:'Chakra Petch';stroke-width:0.264583"
         x="927.09998"
         y="520.70001"
         id="tspan1077" /></text><g
       id="g655"
       style="font-size:67.9267px;line-height:0.75;word-spacing:0px;stroke-width:0.707567"
       transform="translate(-3.42534)"><path
         d="m 352.67534,50.799937 h 9.23803 V 70.70246 h 20.1063 V 50.799937 h 9.23803 v 47.548688 h -9.23803 V 78.581956 h -20.1063 v 19.766669 h -9.23803 z"
         style="font-weight:bold;font-family:'Chakra Petch';-inkscape-font-specification:'Chakra Petch Bold'"
         id="path616" /><path
         d="m 400.4278,50.799937 h 9.23803 v 47.548688 h -9.23803 z"
         style="font-weight:bold;font-family:'Chakra Petch';-inkscape-font-specification:'Chakra Petch Bold';stroke:none;stroke-opacity:1"
         id="path618" /><path
         d="M 418.15661,90.537055 V 58.611508 l 7.81157,-7.811571 h 23.63849 l 7.67571,7.675717 v 7.268157 h -9.23803 v -3.871822 l -3.19255,-3.192555 h -13.9929 l -3.46426,3.464262 v 24.861171 l 3.46426,3.464261 h 14.12875 l 3.32841,-3.328408 v -7.40401 h -10.189 v -7.879497 h 19.15532 v 18.679842 l -7.81157,7.81157 h -23.50263 z"
         style="font-weight:bold;font-family:'Chakra Petch';-inkscape-font-specification:'Chakra Petch Bold'"
         id="path620" /><path
         d="m 464.75436,50.799937 h 9.23803 V 70.70246 h 20.1063 V 50.799937 h 9.23804 v 47.548688 h -9.23804 V 78.581956 h -20.1063 v 19.766669 h -9.23803 z"
         style="font-weight:bold;font-family:'Chakra Petch';-inkscape-font-specification:'Chakra Petch Bold'"
         id="path622" /></g><g
       id="g665"
       style="font-size:67.9267px;line-height:0.75;word-spacing:0px;stroke-width:0.707567"
       transform="translate(0.31063)"><path
         d="m 348.93937,103.22564 h 9.50974 l 11.81924,36.54457 h 0.13585 l 11.81925,-36.54457 h 9.50974 l -16.91375,47.54869 h -8.96632 z"
         style="font-weight:bold;font-family:'Chakra Petch';-inkscape-font-specification:'Chakra Petch Bold'"
         id="path624" /><path
         d="m 396.82767,103.22564 h 34.3709 v 7.81157 H 406.0657 v 12.02303 h 23.163 v 7.67572 h -23.163 v 12.2268 h 25.13287 v 7.81157 h -34.3709 z"
         style="font-weight:bold;font-family:'Chakra Petch';-inkscape-font-specification:'Chakra Petch Bold'"
         id="path626" /><path
         d="m 437.9913,103.22564 h 9.23803 v 39.73712 h 23.77434 v 7.81157 H 437.9913 Z"
         style="font-weight:bold;font-family:'Chakra Petch';-inkscape-font-specification:'Chakra Petch Bold'"
         id="path628" /><path
         d="m 474.40011,142.96276 v -31.92555 l 7.81157,-7.81157 h 24.45361 l 7.81157,7.81157 v 31.92555 l -7.81157,7.81157 h -24.45361 z m 27.37446,-0.0679 3.46426,-3.46426 v -24.8612 l -3.46426,-3.46426 H 487.1024 l -3.46426,3.46426 v 24.86117 l 3.46426,3.46426 z"
         style="font-weight:bold;font-family:'Chakra Petch';-inkscape-font-specification:'Chakra Petch Bold'"
         id="path630" /><path
         d="m 521.94886,142.96276 v -31.92555 l 7.81157,-7.81157 h 23.23093 l 7.67572,7.67572 v 7.26816 h -9.23803 v -3.87182 l -3.19256,-3.19256 h -13.58534 l -3.46426,3.46426 v 24.86117 l 3.46426,3.46426 h 13.58534 l 3.19256,-3.19255 v -3.87182 h 9.23803 v 7.26815 l -7.67572,7.67572 h -23.23093 z"
         style="font-weight:bold;font-family:'Chakra Petch';-inkscape-font-specification:'Chakra Petch Bold'"
         id="path632" /><path
         d="m 567.45979,103.22564 h 9.23804 v 47.54869 h -9.23804 z"
         style="font-weight:bold;font-family:'Chakra Petch';-inkscape-font-specification:'Chakra Petch Bold'"
         id="path634" /><path
         d="m 596.6682,111.03721 h -14.19668 v -7.81157 h 37.63139 v 7.81157 h -14.19668 v 39.73712 h -9.23803 z"
         style="font-weight:bold;font-family:'Chakra Petch';-inkscape-font-specification:'Chakra Petch Bold'"
         id="path636" /><path
         d="M 638.03554,131.3473 621.1218,103.22564 h 10.12107 l 11.34376,19.49497 h 0.13586 l 11.34375,-19.49497 h 10.12108 l -16.91375,28.12166 v 19.42703 h -9.23803 z"
         style="font-weight:bold;font-family:'Chakra Petch';-inkscape-font-specification:'Chakra Petch Bold'"
         id="path638" /></g><g
       id="g662"
       transform="translate(0.65027)"><path
         d="m 365.98897,155.65135 h 8.42291 l 17.38923,47.54869 h -9.37388 l -3.87182,-10.52864 h -16.70997 l -3.87182,10.52864 h -9.37389 z m 10.52864,29.41226 -6.31719,-18.0685 h -0.13585 l -6.1134,18.0685 z"
         style="font-weight:bold;font-size:67.9267px;line-height:0.75;font-family:'Chakra Petch';-inkscape-font-specification:'Chakra Petch Bold';word-spacing:0px;stroke-width:0.707567"
         id="path640" /><path
         d="m 433.91566,187.44104 v 15.759 h -9.23803 v -13.65327 l -4.0756,-4.55109 h -14.80802 v 18.20436 h -9.23804 v -47.54869 h 29.81982 l 7.26816,7.33608 v 14.40046 l -4.61901,4.68695 z m -28.12165,-10.05315 h 16.37033 l 2.37743,-2.37743 v -9.23803 l -2.37743,-2.37744 h -16.37033 z"
         style="font-weight:bold;font-size:67.9267px;line-height:0.75;font-family:'Chakra Petch';-inkscape-font-specification:'Chakra Petch Bold';word-spacing:0px;stroke-width:0.707567"
         id="path642" /><path
         d="m 442.40645,155.65135 h 34.3709 v 7.81157 h -25.13287 v 12.02303 h 23.163 v 7.67571 h -23.163 v 12.22681 h 25.13287 v 7.81157 h -34.3709 z"
         style="font-weight:bold;font-size:67.9267px;line-height:0.75;font-family:'Chakra Petch';-inkscape-font-specification:'Chakra Petch Bold';word-spacing:0px;stroke-width:0.707567"
         id="path644" /><path
         d="m 483.57008,155.65135 h 8.28706 l 21.19313,32.26518 h 0.13585 v -32.26518 h 8.8984 v 47.54869 h -8.28706 l -21.19313,-32.19726 h -0.13585 v 32.19726 h -8.8984 z"
         style="font-weight:bold;font-size:67.9267px;line-height:0.75;font-family:'Chakra Petch';-inkscape-font-specification:'Chakra Petch Bold';word-spacing:0px;stroke-width:0.707567"
         id="path646" /><path
         d="m 544.22865,155.65135 h 8.42291 l 17.38924,47.54869 h -9.37389 l -3.87182,-10.52864 h -16.70996 l -3.87183,10.52864 h -9.37388 z m 10.52864,29.41226 -6.31718,-18.0685 h -0.13585 l -6.11341,18.0685 z"
         style="font-weight:bold;font-size:67.9267px;line-height:0.75;font-family:'Chakra Petch';-inkscape-font-specification:'Chakra Petch Bold';word-spacing:0px;stroke-width:0.707567"
         id="path648" /></g></g></svg>
